<?xml version="1.0" encoding="utf-8"?><!-- Generator: Adobe Illustrator 25.2.3, SVG Export Plug-In . SVG Version: 6.00 Build 0)  -->
<svg style="enable-background:new 0 0 144 144;" id="Слой_1" version="1.1" viewBox="0 0 144 144"
    x="0px" xmlns="http://www.w3.org/2000/svg" y="0px" xml:space="preserve">
<style type="text/css">
	.st0{fill:#534741;stroke:#808080;stroke-width:3;stroke-miterlimit:10;}
	.st1{fill:#808080;stroke:#808080;stroke-width:3;stroke-miterlimit:10;}
	.st2{fill:#666666;}
	.st3{fill:#FF5D47;}
	.st4{fill:#F4FF0A;}
	.st5{fill:#48FF0A;}
</style>
    <g>
	<path class="st0" d="M128,124H18.5c-5.5,0-10-4.5-10-10V33c0-5.5,4.5-10,10-10H128c5.5,0,10,4.5,10,10v81
		C138,119.5,133.5,124,128,124z" />
        <path class="st1"
            d="M130.5,23H16c-4.1,0-7.5,3.4-7.5,7.5v8.3H138v-8.3C138,26.4,134.6,23,130.5,23z" />
</g>
    <path class="st2" d="M111.2,72.8c-3.3-7.6-9-11.3-16.3-12.4c-0.7-0.1-1.7-0.2-2.1-0.8c-0.7-1-1.2-2.2-1.8-3.4
	c-0.1-0.1-0.1-0.2-0.2-0.4c0,0,0,0,0,0l0,0c0,0,0,0,0-0.1c0,0,0,0,0,0c-0.1-0.1-0.1-0.2-0.2-0.3c0,0,0-0.1,0-0.1l0,0c0,0,0,0,0,0
	c0,0,0-0.1-0.1-0.1c-0.1-0.1-0.1-0.2-0.2-0.2c0,0,0-0.1-0.1-0.1l-0.8-1.2c0,0-0.1-0.1-0.1-0.1c-0.1-0.1-0.2-0.2-0.2-0.3
	c-2.4-2.1-6.7-3.4-11.7-3.4c-5.5,0-10.2,1.7-12.4,4.1l0,0l-0.9,0.9c0,0.1-0.1,0.1-0.1,0.2c0,0.1-0.1,0.1-0.1,0.2
	c-0.1,0.1-0.1,0.1-0.2,0.2c0,0.1-0.1,0.1-0.1,0.2c-1,1.6-1.9,3.2-3,4.9c-0.8-0.2-1.7-0.4-2.5-0.6c-5.5-1.1-11.4,2.9-12.6,8.7
	c-0.4,1.7-1,2.4-2.4,3c-7.3,2.9-11,11.2-8.7,19.1c1.7,5.9,7.4,10.4,13.9,10.7c6.7,0.2,13.5,0.1,20.3,0.1h1.1l3.8,0h1.2
	c5.9,0,11.9,0,17.8,0c3.8,0,7.5-1,10.8-3.1C111.7,93,115.2,82,111.2,72.8z" />
    <g>
	<path class="st3" d="M87.4,86.5c0.5-0.6,0.3-1.1-0.6-1L79.1,86c-0.8,0.1-1.2-0.5-0.9-1.2l5-10.9c0.3-0.7,0.3-1.4,0-1.4
		c-0.4,0-1.3,0-2.2,0H70c-0.8,0-1.6,0.7-1.8,1.5l-3.5,18.4c-0.2,0.8,0.4,1.5,1.2,1.6l5.9,0.7c0.8,0.1,1.3,0.8,1,1.6l-5,13.6
		c-0.3,0.8-0.1,0.9,0.4,0.2L87.4,86.5z" />
</g>
    <circle class="st3" cx="130" cy="31" r="3" />
    <circle class="st4" cx="122" cy="31" r="3" />
    <circle class="st5" cx="114" cy="31" r="3" />
</svg>
