<?xml version="1.0" encoding="utf-8"?>
<!-- Generator: Adobe Illustrator 25.2.3, SVG Export Plug-In . SVG Version: 6.00 Build 0)  -->
<svg version="1.1" id="Слой_1" xmlns="http://www.w3.org/2000/svg" xmlns:xlink="http://www.w3.org/1999/xlink" x="0px" y="0px"
	 viewBox="0 0 144 144.3" style="enable-background:new 0 0 144 144.3;" xml:space="preserve">
<g>
	<path d="M0,73.8c8.7,0,17.3,0,26,0c1,0,1.3,0.1,1.4,1.2c0.5,8.1,1.9,16.1,4.2,23.9c0.3,1,0.2,1.3-0.9,1.4
		c-6.8,1.1-13.5,2.4-20.2,4.1c-0.9,0.2-1.3-0.1-1.7-0.8c-4.6-8.3-7.4-17.1-8.5-26.6c0-0.3,0.2-0.8-0.3-1C0,75.3,0,74.6,0,73.8z"/>
	<path d="M0,63.1c0.7-2.1,0.7-4.3,1.1-6.4C2.5,49.4,5,42.6,8.5,36c0.4-0.7,0.7-0.8,1.5-0.6c6.7,1.7,13.5,3,20.4,4.1
		c1.1,0.2,1.3,0.5,1,1.6c-2.2,7.6-3.6,15.3-4,23.2c-0.1,0.9-0.3,1.1-1.2,1.1c-8.7,0-17.4,0-26.2,0C0,64.6,0,63.9,0,63.1z"/>
	<path d="M65.3,0c0,11,0,22,0,32.9c0,1.8,0.4,1.7-1.7,1.6c-6.4-0.3-12.8-0.9-19.2-1.6c-1-0.1-1.2-0.3-0.8-1.3
		c5-11.8,11.6-22.5,21.2-31.2C64.9,0.3,65.1,0.2,65,0C65.1,0,65.2,0,65.3,0z"/>
	<path d="M50.5,73.8c4.5,0,9.1,0,13.6,0c0.8,0,1.1,0.1,1.1,1.1c0,6.9,0,13.9,0,20.8c0,0.8-0.2,1-1,1.1c-7.7,0.3-15.4,1-23.1,2
		c-0.7,0.1-0.9-0.1-1.1-0.7c-2.4-7.6-3.8-15.5-4.3-23.4c-0.1-0.9,0.4-0.8,1-0.8C41.3,73.8,45.9,73.8,50.5,73.8z"/>
	<path d="M50.4,65.4c-4.5,0-9,0-13.5,0c-1,0-1.2-0.3-1.1-1.2c0.6-7.5,1.9-14.8,4-22c0.3-1.1,0.7-1.2,1.8-1.1
		c7.6,1,15.2,1.7,22.8,1.9c0.7,0,0.9,0.2,0.9,1c0,6.8,0,13.6,0,20.4c0,0.9-0.3,1-1.1,1C59.6,65.4,55,65.4,50.4,65.4z"/>
	<path d="M136.1,65.4c-4.4-0.1-8.1-2.1-11.8-4c-1.8-1-3.4-2.2-4.9-3.4c-2.3-1.9-4.9-2.9-7.9-2.9c-1,0-1-0.5-1.1-1.2
		c-0.7-4.4-1.6-8.7-2.9-12.9c-0.3-1-0.2-1.4,0.9-1.5c5.5-0.8,10.9-1.9,16.2-3.1c1.4-0.3,2.8-0.6,4.2-1c0.8-0.2,1.1,0,1.5,0.7
		c4.7,8.6,7.4,17.8,8.3,27.5c0.2,1.8,0.1,1.8-1.7,1.8C136.6,65.4,136.4,65.4,136.1,65.4z"/>
	<path d="M73.7,54.3c0-3.4,0-6.8,0-10.1c0-0.7,0.1-1.1,0.9-1.1c7.7-0.3,15.4-0.9,23.1-1.9c0.8-0.1,1.1,0.1,1.4,0.9
		c1.5,5,2.6,10.2,3.4,15.3c0.1,0.9-0.1,1.4-0.8,2c-3.8,2.7-7.9,4.6-12.3,5.9c-0.4,0.1-0.8,0.1-1.2,0.1c-4.4,0-8.8,0-13.2,0
		c-0.9,0-1.2-0.2-1.1-1.2C73.7,60.9,73.7,57.6,73.7,54.3z"/>
	<path d="M73.8,0.1C80.7,6.3,86,13.5,90.3,21.4c1.9,3.4,3.5,6.8,5,10.3c0.4,1,0.2,1.2-0.8,1.3c-6.6,0.8-13.1,1.3-19.7,1.6
		c-0.7,0-1.2,0.2-1.2-0.9c0-11,0-22,0-33C73.7,0.6,73.7,0.5,73.8,0.1z"/>
	<path d="M65.2,139c-2.7-2.2-4.8-4.5-6.9-6.9c-6.2-7.2-10.9-15.3-14.6-24c-0.4-0.9-0.1-1.1,0.7-1.2c6.6-0.8,13.2-1.4,19.9-1.7
		c0.9,0,1,0.4,1,1.1C65.2,117.1,65.2,127.9,65.2,139z"/>
	<path d="M51.3,2.4c-2,2.5-3.7,4.7-5.3,7C41.5,15.9,37.9,23,35,30.4c-0.4,1-0.8,1.2-1.8,1c-6.1-1-12.2-2.1-18.2-3.5
		c-0.3-0.1-0.5-0.1-1-0.3C23.7,15.1,35.9,6.7,51.3,2.4z"/>
	<path d="M87.7,2.6c11.4,1.7,30.7,14.8,37,25.1c-3,0.6-6,1.3-8.9,1.9c-3.4,0.6-6.7,1.1-10.1,1.8c-1.2,0.3-1.5-0.1-1.9-1.1
		c-3.6-9.3-8.4-17.9-14.5-25.7C88.8,4,88.3,3.3,87.7,2.6z"/>
	<path d="M51.1,136.8c-15-4.3-27-12.5-36.7-24.6c3.5-0.7,6.9-1.5,10.2-2.1c3-0.6,6-1,9-1.6c1-0.2,1.3,0.2,1.6,1
		c2.9,7.3,6.5,14.3,11,20.8C47.7,132.3,49.3,134.4,51.1,136.8z"/>
	<path d="M73.7,138.9c0-8.2,0-16.2,0-24.2c1.8,4.5,4,8.8,6.7,12.9c1.7,2.5,1.7,2.6-0.3,4.9C78.2,134.8,76.1,136.9,73.7,138.9z"/>
	<path d="M143.9,79.1c0-2.1-1.6-3.5-3.8-3.9c-1.9-0.3-3.8-0.6-5.7-1c-7.4-1.7-14.2-4.7-20.1-9.5c-2-1.7-3.9-1.8-5.7-0.2
		c-7.6,6.1-16.3,9.4-25.8,10.7c-2.7,0.4-4,1.9-4.1,4.6c0,5.3-0.1,10.6,0.1,15.9c0.5,12.5,4.7,23.6,13.3,32.9c3.3,3.4,7,6.4,10.6,9.5
		c2.5,2.1,4.7,4.6,7.6,6.2c0.7,0,1.3,0,2,0c1.1-0.4,2.1-1.2,3-2c4-3.5,8-7.1,12.1-10.6c7.7-6.6,12.5-15,15-24.7
		C144.7,97.8,143.9,88.4,143.9,79.1z M128.9,96.5c-4.9,4.9-9.7,9.8-14.6,14.6c-1.8,1.8-4.2,1.7-6-0.1c-2.6-2.6-5.2-5.2-7.8-7.8
		c-0.8-0.8-1.3-1.8-1.3-3c0.1-1.7,0.8-3.1,2.4-3.8c1.6-0.8,3.2-0.5,4.6,0.7c1.4,1.3,2.8,2.6,4.1,4.1c0.8,0.9,1.3,0.8,2,0
		c3.5-3.6,7-7.1,10.5-10.6c1.2-1.2,2.7-1.6,4.4-1.1c1.6,0.5,2.5,1.7,2.8,3.4C130.4,94.3,129.9,95.5,128.9,96.5z"/>
</g>
</svg>
